<?xml version="1.0" ?><svg id="Icon" viewBox="0 0 64 64" xmlns="http://www.w3.org/2000/svg" xmlns:xlink="http://www.w3.org/1999/xlink"><defs><style>.cls-1{fill:url(#linear-gradient);}.cls-2{fill:url(#linear-gradient-2);}.cls-3{fill:#b0bec5;}.cls-4{fill:url(#linear-gradient-3);}.cls-5{fill:#cfd8dc;}.cls-6{fill:url(#linear-gradient-4);}</style><linearGradient gradientUnits="userSpaceOnUse" id="linear-gradient" x1="30.931" x2="30.931" y1="49.832" y2="60.367"><stop offset="0" stop-color="#95c8ec"/><stop offset="1" stop-color="#70b2e2"/></linearGradient><linearGradient gradientUnits="userSpaceOnUse" id="linear-gradient-2" x1="30.931" x2="30.931" y1="53.218" y2="47.158"><stop offset="0" stop-color="#70b2e2"/><stop offset="1" stop-color="#57a0d7"/></linearGradient><linearGradient gradientUnits="userSpaceOnUse" id="linear-gradient-3" x1="31.355" x2="31.355" y1="18.376" y2="48.115"><stop offset="0" stop-color="#57a0d7"/><stop offset="1" stop-color="#3d82c4"/></linearGradient><linearGradient gradientUnits="userSpaceOnUse" id="linear-gradient-4" x1="25.178" x2="25.178" y1="23.411" y2="31.615"><stop offset="0" stop-color="#e4f2fc"/><stop offset="1" stop-color="#bdddf4"/></linearGradient></defs><polygon class="cls-1" points="47.169 59.5 14.693 59.5 12.356 52.203 49.505 52.203 47.169 59.5"/><rect class="cls-2" height="5.495" rx="2.748" width="49.446" x="6.208" y="46.708"/><path class="cls-3" d="M50.54,24.2H46.861a1,1,0,0,0,0,2H50.54a5.253,5.253,0,0,1,0,10.505H46.861a1,1,0,1,0,0,2H50.54a7.253,7.253,0,0,0,0-14.5Z"/><path class="cls-4" d="M46.86,21.86V41.28l-3,5.43H18.85l-3-5.43V21.86a2,2,0,0,1,2-2H44.86A1.993,1.993,0,0,1,46.86,21.86Z"/><path class="cls-5" d="M26.18,19.86V25.2a1,1,0,0,1-2,0V19.86Z"/><path class="cls-6" d="M25.178,24.2a3.548,3.548,0,0,0-3.544,3.545v2.544a1,1,0,0,0,1,1h5.089a1,1,0,0,0,1-1V27.748A3.549,3.549,0,0,0,25.178,24.2Z"/><path class="cls-5" d="M32.831,5.5a1,1,0,0,0-2,0c0,.084,0,.091-.2.295a2.253,2.253,0,0,0,0,3.364c.2.2.2.211.2.3s0,.093-.2.3a2.28,2.28,0,0,0-.754,1.683,1,1,0,0,0,2,0c0-.086,0-.093.2-.3a2.255,2.255,0,0,0,0-3.364c-.2-.205-.2-.211-.2-.3s0-.092.2-.3A2.273,2.273,0,0,0,32.831,5.5Z"/><path class="cls-5" d="M41.882,7.477c0-.085,0-.092.2-.3A2.278,2.278,0,0,0,42.831,5.5a1,1,0,0,0-2,0c0,.085,0,.092-.2.295a2.255,2.255,0,0,0,0,3.364c.2.2.2.211.2.3s0,.093-.2.3a2.283,2.283,0,0,0-.753,1.683,1,1,0,0,0,2,0c0-.086,0-.093.2-.3a2.255,2.255,0,0,0,0-3.364C41.882,7.569,41.882,7.563,41.882,7.477Z"/><path class="cls-5" d="M22.831,5.5a1,1,0,0,0-2,0c0,.084,0,.091-.2.295a2.253,2.253,0,0,0,0,3.364c.2.2.2.211.2.3s0,.093-.2.3a2.28,2.28,0,0,0-.754,1.683,1,1,0,0,0,2,0c0-.086,0-.093.2-.3a2.255,2.255,0,0,0,0-3.364c-.2-.205-.2-.211-.2-.3s0-.092.2-.3A2.273,2.273,0,0,0,22.831,5.5Z"/></svg>